<svg height="1597" viewBox="0 0 1132 1597" xmlns:ev="http://www.w3.org/2001/xml-events" xmlns:xlink="http://www.w3.org/1999/xlink" xmlns="http://www.w3.org/2000/svg" width="1132"><style type="text/css"><![CDATA[
.st2 {fill:#191919;font-family:Times New Roman;font-size:13pt;font-weight:bold}
.st1 {fill:#191919;font-family:Times New Roman;font-size:16pt}
.st4 {fill:#191919;font-family:Times New Roman;font-size:18pt}
.st3 {font-family:Cantarell}
]]></style><defs/><g id="page1" transform="translate(5,5)"><rect height="1587" x="0" y="0" fill="#ffffff" width="1123" stroke="#808080"/><path stroke-width="6" d="M0,0L0,1049" id="shape1" fill="none" transform="translate(888,47)" stroke="#323232"/><g id="shape2" transform="translate(318.75,47)"><path fill-rule="evenodd" d="M120,76C126.6,76,132,70.6,132,64L132,12C132,5.4,126.6,0,120,0L12,0C5.4,0,0,5.4,0,12L0,64C0,70.6,5.4,76,12,76L120,76z" fill="#f0b0b1" stroke="#323232"/><text class="st1"><tspan x="20" y="44">Workspace</tspan></text></g><g id="shape3" transform="translate(511,47)"><path fill-rule="evenodd" d="M120,76C126.6,76,132,70.6,132,64L132,12C132,5.4,126.6,0,120,0L12,0C5.4,0,0,5.4,0,12L0,64C0,70.6,5.4,76,12,76L120,76z" fill="#ffdcac" stroke="#323232"/><text class="st1"><tspan x="32" y="44">Indexed</tspan></text></g><g id="shape4" transform="translate(703.25,47)"><path fill-rule="evenodd" d="M120,76C126.6,76,132,70.6,132,64L132,12C132,5.4,126.6,0,120,0L12,0C5.4,0,0,5.4,0,12L0,64C0,70.6,5.4,76,12,76L120,76z" fill="#b0ddc1" stroke="#323232"/><text class="st1"><tspan x="42" y="32">Local </tspan><tspan x="20" y="56">Repository</tspan></text></g><g id="shape5" transform="translate(945,47)"><path fill-rule="evenodd" d="M120,76C126.6,76,132,70.6,132,64L132,12C132,5.4,126.6,0,120,0L12,0C5.4,0,0,5.4,0,12L0,64C0,70.6,5.4,76,12,76L120,76z" fill="#aada8f" stroke="#323232"/><text class="st1"><tspan x="33" y="32">Remote </tspan><tspan x="20" y="56">Repository</tspan></text></g><g id="shape6" transform="translate(106.25,47)"><path fill-rule="evenodd" d="M120,76C126.6,76,132,70.6,132,64L132,12C132,5.4,126.6,0,120,0L12,0C5.4,0,0,5.4,0,12L0,64C0,70.6,5.4,76,12,76L120,76z" fill="#b2c2e9" stroke="#000000"/><text class="st1"><tspan x="43" y="44">Stash</tspan></text></g><path stroke-width="1" d="M0,0L0,983.5" id="shape7" fill="none" transform="translate(172.25,123)" stroke="#323232"/><path stroke-width="1" d="M0,0L0,983.5" id="shape8" fill="none" transform="translate(384.75,123)" stroke="#323232"/><path stroke-width="1" d="M0,0L0,983.5" id="shape9" fill="none" transform="translate(577,123)" stroke="#323232"/><path stroke-width="1" d="M0,0L0,983.5" id="shape10" fill="none" transform="translate(1011,123)" stroke="#323232"/><path stroke-width="1" d="M0,0L-0,983.5" id="shape11" fill="none" transform="translate(769.25,123)" stroke="#323232"/><g id="shape12" transform="matrix(-1,0,0,-1,765,350)"><path fill-rule="evenodd" d="M0,20.1L347.9,20.1L347.9,0L378,33.5L347.9,67L347.9,46.9L0,46.9L0,20.1z" fill="#c4e4b4" stroke="#323232"/><text transform="matrix(-1,0,0,-1,347.9,67)" class="st2"><tspan x="149.4" y="39" class="st3">git init</tspan></text></g><g id="shape13" transform="matrix(-1,0,0,-1,1008,421)"><path fill-rule="evenodd" d="M0,20.1L590.9,20.1L590.9,0L621,33.5L590.9,67L590.9,46.9L0,46.9L0,20.1z" fill="#c4e4b4" stroke="#323232"/><text transform="matrix(-1,0,0,-1,590.9,67)" class="st2"><tspan x="262.4" y="39" class="st3">git clone</tspan></text></g><path fill-rule="evenodd" d="M9.2,0L18.9,0L12.2,16L24.3,16L1.7,43.9L9.2,23.2L0,23.2L9.2,0z" id="shape14" fill="#ffff00" transform="translate(877.97,63.05)" stroke="#ff0000"/><g id="shape15" transform="translate(38,283)"><text class="st4"><tspan x="19" y="76">Initialize</tspan></text></g><g id="shape16" transform="matrix(-1,0,0,-1,1008,504)"><path fill-rule="evenodd" d="M0,20.1L590.9,20.1L590.9,0L621,33.5L590.9,67L590.9,46.9L0,46.9L0,20.1z" fill="#f0b0b1" stroke="#323232"/><text transform="matrix(-1,0,0,-1,590.9,67)" class="st2"><tspan x="268.4" y="39" class="st3">git pull</tspan></text></g><g id="shape17" transform="matrix(-1,0,0,-1,1008,553.5)"><path fill-rule="evenodd" d="M0,20.1L207.8,20.1L207.8,0L238,33.5L207.8,67L207.8,46.9L0,46.9L0,20.1z" fill="#f0b0b1" stroke="#323232"/><text transform="matrix(-1,0,0,-1,207.8,67)" class="st2"><tspan x="74.4" y="38.5">git fetch</tspan></text></g><g id="shape18" transform="translate(387,587.25)"><path fill-rule="evenodd" d="M0,20.1L347.9,20.1L347.9,0L378,33.5L347.9,67L347.9,46.9L0,46.9L0,20.1z" fill="#fce94f" stroke="#323232"/><text class="st2"><tspan x="122.4" y="39" class="st3">git commit -a</tspan></text></g><g id="shape19" transform="translate(387,637.75)"><path fill-rule="evenodd" d="M0,20.1L158.8,20.1L158.8,0L189,33.5L158.8,67L158.8,46.9L0,46.9L0,20.1z" fill="#fce94f" stroke="#323232"/><text class="st2"><tspan x="53.4" y="39" class="st3">git add</tspan></text></g><g id="shape20" transform="translate(579,663.75)"><path fill-rule="evenodd" d="M0,20.1L155.8,20.1L155.8,0L186,33.5L155.8,67L155.8,46.9L0,46.9L0,20.1z" fill="#fce94f" stroke="#323232"/><text class="st2"><tspan x="36.4" y="39" class="st3">git commit</tspan></text></g><g id="shape21" transform="translate(771,693.25)"><path fill-rule="evenodd" d="M0,20.1L207.8,20.1L207.8,0L238,33.5L207.8,67L207.8,46.9L0,46.9L0,20.1z" fill="#fce94f" stroke="#323232"/><text class="st2"><tspan x="73.4" y="39" class="st3">git push</tspan></text></g><g id="shape22" transform="matrix(-1,0,0,-1,765,839.8)"><path fill-rule="evenodd" d="M0,20.1L347.9,20.1L347.9,0L378,33.5L347.9,67L347.9,46.9L0,46.9L0,20.1z" fill="#ffce80" stroke="#323232"/><text transform="matrix(-1,0,0,-1,347.9,67)" class="st2"><tspan x="107.4" y="39" class="st3">git checkout head</tspan></text></g><g id="shape23" transform="matrix(-1,0,0,-1,765,890.3)"><path fill-rule="evenodd" d="M0,20.1L153.8,20.1L153.8,0L184,33.5L153.8,67L153.8,46.9L0,46.9L0,20.1z" fill="#ffce80" stroke="#323232"/><text transform="matrix(-1,0,0,-1,153.8,67)" class="st2"><tspan x="30.4" y="39" class="st3">gti checkout</tspan></text></g><g id="shape24" transform="translate(38,431)"><text class="st4"><tspan x="27" y="68.3">Update</tspan></text></g><g id="shape25" transform="translate(38,595)"><text class="st4"><tspan x="25" y="79">Change</tspan></text></g><g id="shape26" transform="translate(38,766.5)"><text class="st4"><tspan x="30" y="66">Revert</tspan></text></g><path fill-rule="evenodd" d="M0,33.5L33.5,0L33.5,20.1L155.5,20.1L155.5,0L189,33.5L155.5,67L155.5,46.9L33.5,46.9L33.5,67L0,33.5z" id="shape27" fill="#c2c2c2" transform="translate(387,906.25)" stroke="#323232"/><g id="shape28" transform="translate(387,978.25)"><path fill-rule="evenodd" d="M0,33.5L33.5,0L33.5,20.1L344.5,20.1L344.5,0L378,33.5L344.5,67L344.5,46.9L33.5,46.9L33.5,67L0,33.5z" fill="#c2c2c2" stroke="#323232"/><text class="st2"><tspan x="164" y="39" class="st3">git diff</tspan></text></g><g id="shape29" transform="translate(38,903)"><text class="st4"><tspan x="42" y="74.5">Diff</tspan></text></g><g id="shape30" transform="translate(175,203)"><path fill-rule="evenodd" d="M0,20.1L177.8,20.1L177.8,0L208,33.5L177.8,67L177.8,46.9L0,46.9L0,20.1z" fill="#aad3f5" stroke="#323232"/><text class="st2"><tspan x="33.4" y="39" class="st3">git stash apply</tspan></text></g><g id="shape31" transform="matrix(-1,-0,0,-1,382,217.5)"><path fill-rule="evenodd" d="M0,20.1L177.8,20.1L177.8,0L208,33.5L177.8,67L177.8,46.9L0,46.9L0,20.1z" fill="#aad3f5" stroke="#323232"/><text transform="matrix(-1,0,0,-1,177.8,67)" class="st2"><tspan x="59.4" y="38.5">git stash</tspan></text></g><path stroke-dasharray="2,5" d="M0,0L975,0" id="shape32" fill="none" transform="translate(53,276)" stroke="#0a0a0a"/><path stroke-dasharray="2,5" d="M0,0L975,0" id="shape33" fill="none" transform="translate(53,428)" stroke="#0a0a0a"/><path stroke-dasharray="2,5" d="M0,0L975,0" id="shape34" fill="none" transform="translate(53,582)" stroke="#0a0a0a"/><path stroke-dasharray="2,5" d="M0,0L975,0" id="shape35" fill="none" transform="translate(53,767)" stroke="#0a0a0a"/><path stroke-dasharray="2,5" d="M0,0L975,0" id="shape36" fill="none" transform="translate(53,897)" stroke="#0a0a0a"/><g id="shape37" transform="translate(57,150.5)"><text class="st1"><tspan x="6" y="51.5">Temporary </tspan><tspan x="22" y="75.5">backup</tspan></text></g><g id="shape38" transform="matrix(-1,0,0,-1,765,577)"><path fill-rule="evenodd" d="M0,20.1L347.9,20.1L347.9,0L378,33.5L347.9,67L347.9,46.9L0,46.9L0,20.1z" fill="#f0b0b1" stroke="#323232"/><text transform="matrix(-1,0,0,-1,347.9,67)" class="st2"><tspan x="139.4" y="38.5">git merge</tspan></text></g></g></svg>